<svg id="Layer_1" data-name="Layer 1" xmlns="http://www.w3.org/2000/svg" viewBox="0 0 572.01 652.98"><defs><style>.cls-1{fill:#1d305e;}.cls-2,.cls-3{fill:#fff;}.cls-3{font-size:119px;font-family:Centaur;}</style></defs><rect class="cls-1" x="345.77" width="172.55" height="43.07"/><rect class="cls-2" x="275.35" y="58.19" width="242.97" height="43.07"/><rect class="cls-2" x="194.55" y="116.38" width="323.77" height="43.07"/><rect class="cls-2" x="117.12" y="176.47" width="401.2" height="43.07"/><rect class="cls-2" x="30.36" y="235.75" width="487.96" height="43.07"/><path class="cls-2" d="M91.26,501.76a47.18,47.18,0,0,1,13.14,18.63,55,55,0,0,1,4.27,19.93,43.91,43.91,0,0,1-3.22,17.42,30.47,30.47,0,0,1-8.27,11.66q-8.36,6.44-22.46,6.44-19.86,0-29.43-9.14t-9.58-23.24a50.41,50.41,0,0,1,4.36-19.94,60.41,60.41,0,0,1,12-18.19A43.65,43.65,0,0,1,69.14,494Q82.37,494,91.26,501.76ZM46.68,544.24a49.84,49.84,0,0,0,15.24,5.22,99.56,99.56,0,0,0,19.24,1.83,62.58,62.58,0,0,0,15.06-1.83q7.4-1.82,7.57-5.65.18-5.4-5.31-11.32a41.64,41.64,0,0,0-14.36-9.75,45,45,0,0,0-17.94-3.83,28.6,28.6,0,0,0-11.4,2.61,30.36,30.36,0,0,0-10,6.79q-4,4.19-4,8.36T46.68,544.24ZM49,468.94a59.51,59.51,0,0,1,12.19-13.76,110.15,110.15,0,0,1,12.36,14.1,59.67,59.67,0,0,1,12.19-13.75,131,131,0,0,1,13.23,15.15q-9.4,10.27-12,13.06a72.56,72.56,0,0,1-12.53-13.41q-9.41,10.28-12,13.06A72.17,72.17,0,0,1,49,468.94Z" transform="translate(-19.38 -115.41)"/><path class="cls-2" d="M149.67,539.63q4.26,4.7,14.71,4.7l-6.27,27.51a19,19,0,0,1-14.71-6.44q-5.84-6.45-8.79-21.77l-12.88-70,15.84-27a4.32,4.32,0,0,1,2.79-1.57,2.87,2.87,0,0,1,2.52,1.74,9,9,0,0,1,1,4.36l1.22,72.08Q145.4,534.93,149.67,539.63Z" transform="translate(-19.38 -115.41)"/><path class="cls-2" d="M158.11,571.84a90.19,90.19,0,0,1,1.66-17.24q1.47-6.79,4.61-10.27,31.17,0,45.36-4t18.72-11.49l-.53-4.35a86.76,86.76,0,0,1-14.27,5.57,52.17,52.17,0,0,1-14.8,2.26q-12.37,0-19.77-7.22t-7.4-22.55a53.81,53.81,0,0,1,3.75-19.24A42.6,42.6,0,0,1,186.06,467a22.41,22.41,0,0,1,15.76-6.44q9.57,0,17.41,8.53t12.36,23a104.94,104.94,0,0,1,4.53,31.52Q236.12,571.84,158.11,571.84Zm18.63-137.73a60.14,60.14,0,0,1,12.19-13.75,108.62,108.62,0,0,1,12.36,14.1,59.93,59.93,0,0,1,12.19-13.75,128.43,128.43,0,0,1,13.23,15.15q-9.39,10.27-12,13.05a72.88,72.88,0,0,1-12.54-13.4q-9.39,10.28-12,13.06A72,72,0,0,1,176.74,434.11Zm22.46,77.31q8.53,0,24.21-4.18Q218.7,495.59,211,490T195,484.43q-8.37,0-13.15,4.79a15.2,15.2,0,0,0-4.79,11.06Q177.09,511.42,199.2,511.42Z" transform="translate(-19.38 -115.41)"/><path class="cls-2" d="M210.69,588.73a5.16,5.16,0,0,1,3.31-.87q4,.69,15.41,1.48t16.45.78q14.8,0,25.6-7a25.81,25.81,0,0,0,12.19-19.85L276,551.47l-12.54-19L273,512.64q1.74-3.66,3.65-3.66c1.16,0,2.21.82,3.14,2.44l11.66,22.29q3.13,5.74,7,8.18t10.79,2.44L303,571.84q-8.18,0-13.23-4-1.22,20.37-10.62,32.48a29.83,29.83,0,0,1-24.72,12.1,13.75,13.75,0,0,1-6-1.48q-3-1.48-8.62-4.79-7.49-4.35-13.67-7.31A70.94,70.94,0,0,0,211.91,594a2.87,2.87,0,0,1-2.26-3A2.81,2.81,0,0,1,210.69,588.73Z" transform="translate(-19.38 -115.41)"/><path class="cls-2" d="M309.24,544.33h27.34l-6.45,27.51H303Q303,553.9,309.24,544.33Z" transform="translate(-19.38 -115.41)"/><path class="cls-2" d="M336.58,544.33h27.33l-6.44,27.51H330.31Q330.31,553.9,336.58,544.33Z" transform="translate(-19.38 -115.41)"/><path class="cls-2" d="M363.91,544.33h27.34l-6.44,27.51H357.64Q357.64,553.9,363.91,544.33Z" transform="translate(-19.38 -115.41)"/><path class="cls-2" d="M391.25,544.33h27.33l-6.44,27.51H385Q385,553.9,391.25,544.33Z" transform="translate(-19.38 -115.41)"/><path class="cls-2" d="M418.58,544.33h27.34l-6.44,27.51H412.32Q412.32,553.9,418.58,544.33Z" transform="translate(-19.38 -115.41)"/><path class="cls-2" d="M445.92,544.33h27.34l-6.45,27.51H439.65Q439.65,553.9,445.92,544.33Z" transform="translate(-19.38 -115.41)"/><path class="cls-2" d="M498.52,599.18l42.65-11.66-1.74,8.7L496.6,607.54Z" transform="translate(-19.38 -115.41)"/><path class="cls-2" d="M468.81,553.21q1.83-8.88,4.44-8.88a15.69,15.69,0,0,0,12-5.05,69.4,69.4,0,0,1,4.53-20.81,51.45,51.45,0,0,1,10.7-17.76q6.71-7.05,14.72-7,8.17,0,15.41,6.18a45.78,45.78,0,0,1,11.84,16.72,66,66,0,0,1,5.31,22.89A127.61,127.61,0,0,1,545.34,553q-2.08,9.59-3.66,12.37a37.88,37.88,0,0,1-12.27,5.31,59.05,59.05,0,0,1-14.54,1.82,47.17,47.17,0,0,1-16.63-2.95A33.44,33.44,0,0,1,484.57,560a19.62,19.62,0,0,1-7.49,8.62A18.58,18.58,0,0,1,467,571.84,92.85,92.85,0,0,1,468.81,553.21Zm50.24-7.14a61.21,61.21,0,0,0,23.33-4.7Q535.77,530.23,528.1,524t-15.84-6.18q-6.79,0-12.8,5.92A32.3,32.3,0,0,0,491,538.93Q502.33,546.07,519.05,546.07Z" transform="translate(-19.38 -115.41)"/><text class="cls-3" transform="translate(0 606.08)">MERQAA</text></svg>