<svg id="Layer_1" data-name="Layer 1" xmlns="http://www.w3.org/2000/svg" viewBox="0 0 552.4 622.11"><defs><style>.cls-1{fill:#1d305e;}.cls-2{fill:#b8963c;}.cls-3{fill:#b89539;}</style></defs><rect class="cls-1" x="343.85" width="172.55" height="43.07"/><rect class="cls-2" x="273.44" y="58.19" width="242.97" height="43.07"/><rect class="cls-2" x="192.63" y="116.38" width="323.77" height="43.07"/><rect class="cls-2" x="115.2" y="176.47" width="401.2" height="43.07"/><rect class="cls-2" x="28.44" y="235.75" width="487.96" height="43.07"/><path class="cls-3" d="M91.26,501.76a47.18,47.18,0,0,1,13.14,18.63,55,55,0,0,1,4.27,19.93,43.91,43.91,0,0,1-3.22,17.42,30.47,30.47,0,0,1-8.27,11.66q-8.36,6.44-22.46,6.44-19.86,0-29.43-9.14t-9.58-23.24a50.41,50.41,0,0,1,4.36-19.94,60.41,60.41,0,0,1,12-18.19A43.65,43.65,0,0,1,69.14,494Q82.37,494,91.26,501.76ZM46.68,544.24a49.84,49.84,0,0,0,15.24,5.22,99.56,99.56,0,0,0,19.24,1.83,62.58,62.58,0,0,0,15.06-1.83q7.4-1.82,7.57-5.65.18-5.4-5.31-11.32a41.64,41.64,0,0,0-14.36-9.75,45,45,0,0,0-17.94-3.83,28.6,28.6,0,0,0-11.4,2.61,30.36,30.36,0,0,0-10,6.79q-4,4.19-4,8.36T46.68,544.24ZM49,468.94a59.51,59.51,0,0,1,12.19-13.76,110.15,110.15,0,0,1,12.36,14.1,59.67,59.67,0,0,1,12.19-13.75,131,131,0,0,1,13.23,15.15q-9.4,10.27-12,13.06a72.56,72.56,0,0,1-12.53-13.41q-9.41,10.28-12,13.06A72.17,72.17,0,0,1,49,468.94Z" transform="translate(-21.29 -115.41)"/><path class="cls-3" d="M149.67,539.63q4.26,4.7,14.71,4.7l-6.27,27.51a19,19,0,0,1-14.71-6.44q-5.84-6.45-8.79-21.77l-12.88-70,15.84-27a4.32,4.32,0,0,1,2.79-1.57,2.87,2.87,0,0,1,2.52,1.74,9,9,0,0,1,1,4.36l1.22,72.08Q145.4,534.93,149.67,539.63Z" transform="translate(-21.29 -115.41)"/><path class="cls-3" d="M158.11,571.84a90.19,90.19,0,0,1,1.66-17.24q1.47-6.79,4.61-10.27,31.17,0,45.36-4t18.72-11.49l-.53-4.35a86.76,86.76,0,0,1-14.27,5.57,52.17,52.17,0,0,1-14.8,2.26q-12.37,0-19.77-7.22t-7.4-22.55a53.81,53.81,0,0,1,3.75-19.24A42.6,42.6,0,0,1,186.06,467a22.41,22.41,0,0,1,15.76-6.44q9.57,0,17.41,8.53t12.36,23a104.94,104.94,0,0,1,4.53,31.52Q236.12,571.84,158.11,571.84Zm18.63-137.73a60.14,60.14,0,0,1,12.19-13.75,108.62,108.62,0,0,1,12.36,14.1,59.93,59.93,0,0,1,12.19-13.75,128.43,128.43,0,0,1,13.23,15.15q-9.39,10.27-12,13.05a72.88,72.88,0,0,1-12.54-13.4q-9.39,10.28-12,13.06A72,72,0,0,1,176.74,434.11Zm22.46,77.31q8.53,0,24.21-4.18Q218.7,495.59,211,490T195,484.43q-8.37,0-13.15,4.79a15.2,15.2,0,0,0-4.79,11.06Q177.09,511.42,199.2,511.42Z" transform="translate(-21.29 -115.41)"/><path class="cls-3" d="M210.69,588.73a5.16,5.16,0,0,1,3.31-.87q4,.69,15.41,1.48t16.45.78q14.8,0,25.6-7a25.81,25.81,0,0,0,12.19-19.85L276,551.47l-12.54-19L273,512.64q1.74-3.66,3.65-3.66c1.16,0,2.21.82,3.14,2.44l11.66,22.29q3.13,5.74,7,8.18t10.79,2.44L303,571.84q-8.18,0-13.23-4-1.22,20.37-10.62,32.48a29.83,29.83,0,0,1-24.72,12.1,13.75,13.75,0,0,1-6-1.48q-3-1.48-8.62-4.79-7.49-4.35-13.67-7.31A70.94,70.94,0,0,0,211.91,594a2.87,2.87,0,0,1-2.26-3A2.81,2.81,0,0,1,210.69,588.73Z" transform="translate(-21.29 -115.41)"/><path class="cls-3" d="M309.24,544.33h27.34l-6.45,27.51H303Q303,553.9,309.24,544.33Z" transform="translate(-21.29 -115.41)"/><path class="cls-3" d="M336.58,544.33h27.33l-6.44,27.51H330.31Q330.31,553.9,336.58,544.33Z" transform="translate(-21.29 -115.41)"/><path class="cls-3" d="M363.91,544.33h27.34l-6.44,27.51H357.64Q357.64,553.9,363.91,544.33Z" transform="translate(-21.29 -115.41)"/><path class="cls-3" d="M391.25,544.33h27.33l-6.44,27.51H385Q385,553.9,391.25,544.33Z" transform="translate(-21.29 -115.41)"/><path class="cls-3" d="M418.58,544.33h27.34l-6.44,27.51H412.32Q412.32,553.9,418.58,544.33Z" transform="translate(-21.29 -115.41)"/><path class="cls-3" d="M445.92,544.33h27.34l-6.45,27.51H439.65Q439.65,553.9,445.92,544.33Z" transform="translate(-21.29 -115.41)"/><path class="cls-3" d="M498.52,599.18l42.65-11.66-1.74,8.7L496.6,607.54Z" transform="translate(-21.29 -115.41)"/><path class="cls-3" d="M468.81,553.21q1.83-8.88,4.44-8.88a15.69,15.69,0,0,0,12-5.05,69.4,69.4,0,0,1,4.53-20.81,51.45,51.45,0,0,1,10.7-17.76q6.71-7.05,14.72-7,8.17,0,15.41,6.18a45.78,45.78,0,0,1,11.84,16.72,66,66,0,0,1,5.31,22.89A127.61,127.61,0,0,1,545.34,553q-2.08,9.59-3.66,12.37a37.88,37.88,0,0,1-12.27,5.31,59.05,59.05,0,0,1-14.54,1.82,47.17,47.17,0,0,1-16.63-2.95A33.44,33.44,0,0,1,484.57,560a19.62,19.62,0,0,1-7.49,8.62A18.58,18.58,0,0,1,467,571.84,92.85,92.85,0,0,1,468.81,553.21Zm50.24-7.14a61.21,61.21,0,0,0,23.33-4.7Q535.77,530.23,528.1,524t-15.84-6.18q-6.79,0-12.8,5.92A32.3,32.3,0,0,0,491,538.93Q502.33,546.07,519.05,546.07Z" transform="translate(-21.29 -115.41)"/><path class="cls-3" d="M21.87,648.28l.24-2.21c.73,0,1.45,0,2.14.09s1.92.1,3.66.14c2,.16,3.89.29,5.63.41s3.52.17,5.34.17l2.09-.09,2.9,0q1.92,5.16,3.46,8.71t6.15,12.41q4.59,8.85,8.87,16.85t10.74,20.07q2.63-4.35,8.54-15.8,1.09-2.1,8.1-15.23t9.83-18.53q2.85-5.4,4.3-8.6,4.53.12,9.88.12c2.94,0,5.29,0,7-.12l-.12,2.15a32.5,32.5,0,0,0-6.33,1.19,5.3,5.3,0,0,0-2.85,2.35,11.81,11.81,0,0,0-1.25,4.88c-.17,2.14-.22,5.87-.14,11.22l.35,16.15c0,.93.06,1.85.08,2.76s.06,2,.12,3.37.13,3.06.2,5.17.18,4.74.29,7.88q.3,5.46.67,8.19a9.56,9.56,0,0,0,1.48,4.27,5.12,5.12,0,0,0,2.85,2,23.56,23.56,0,0,0,5.35.61V721l-10-.11-7.73.11a89.82,89.82,0,0,0-11,.59l-.11-2.21a23.65,23.65,0,0,0,7-2.53,7.87,7.87,0,0,0,3-4.82,42.78,42.78,0,0,0,.93-10.36q0-4.41-.11-7.14l-.47-15.67a170.78,170.78,0,0,0-1.57-18.58q-1.74,3.38-5.37,10.12t-6.67,12.49q-3.06,5.75-5.9,11.21t-4.64,9.3q-3.72,8.13-4.91,11t-2.35,6.51l-1.79.11q-1.45-4.59-3.49-10a112.25,112.25,0,0,0-5.76-12.55Q53,684.13,40.41,660q-1,9.87-1.92,23.06t-.93,27.89q0,4.55,1.89,6.34t8.86,2.55l-.11,1.92a68.86,68.86,0,0,0-8.26-.46l-7,.11c-.81,0-1.56,0-2.23,0l-2.94.09-3.77.14c-1.24.06-2.14.09-2.68.09l.12-1.68q5.58-1,7.9-2.88a8.91,8.91,0,0,0,3-5.43A120.07,120.07,0,0,0,33.67,699l1.74-30.33c.2-2.79.29-4.67.29-5.63q0-5.94-1.54-9a8.25,8.25,0,0,0-4.41-4.21A28.25,28.25,0,0,0,21.87,648.28Z" transform="translate(-21.29 -115.41)"/><path class="cls-3" d="M203.22,704.46H205a91.17,91.17,0,0,1-2,10,45.52,45.52,0,0,1-2.85,7.58c-1.28-.12-3-.2-5.23-.26s-5.31-.09-9.3-.09q-3.6,0-7.73-.11t-3.54-.12q-3.78,0-8.8.09t-12.12.32c-4.72.15-8.19.29-10.4.4l.12-2c1.21-.27,2.44-.57,3.68-.9a6.78,6.78,0,0,0,2.55-1.08,3.32,3.32,0,0,0,1-1.42,18.05,18.05,0,0,0,.58-3c.24-1.47.46-4.14.67-8s.39-8.18.52-13,.19-7.8.15-9l-.41-18.48a101.16,101.16,0,0,0-.66-11.62c-.33-2-1-3.35-1.89-4A15.07,15.07,0,0,0,144,648a7.73,7.73,0,0,1,.12-1.51h37.24q6.27,0,18.94-.46-.28,5-1,10t-1.92,5c-1,0-1.45-.29-1.45-.87,0-.23.07-1,.23-2.21s.23-2,.23-2.15q0-4.25-5.08-5.4a55,55,0,0,0-12.18-1.17,142.81,142.81,0,0,0-17.83,1.17,154.05,154.05,0,0,0-1.05,16.21c0,2.86,0,6.16.06,9.88s.06,5.46.06,5.23c.93.07,3.77.11,8.54.11q12.31,0,16.91-.46a13.92,13.92,0,0,0,3.51-.7,4.2,4.2,0,0,0,1.72-2.06,33.83,33.83,0,0,0,1.8-5.09l1.68.12q0,6,0,10.81t-.08,10.92h-2c-.11-3.56-.65-6-1.59-7.44s-2.78-2.28-5.5-2.67a119.12,119.12,0,0,0-14.46-.58,72.25,72.25,0,0,0-10.46.58l-.24,8.25q-.4,15.11,1.05,23.3c.7.2,1.53.41,2.5.64s1.88.42,2.75.55,2.12.27,3.74.41,3.66.2,6.1.2a60.12,60.12,0,0,0,14.3-1.33,16.06,16.06,0,0,0,8-4.3A24.55,24.55,0,0,0,203.22,704.46Z" transform="translate(-21.29 -115.41)"/><path class="cls-3" d="M262.6,695.57,255.92,686a89.23,89.23,0,0,1-12.73-.75l-.11,14c0,2.94.08,6.23.26,9.87a25.66,25.66,0,0,0,1.19,7.73,3.26,3.26,0,0,0,1.6,2,32,32,0,0,0,5.08,1.62c.85.2,1.28.51,1.28.93,0,.85-.27,1.28-.81,1.28a48.47,48.47,0,0,1-4.88-.58c-3.34-.31-5.37-.46-6.11-.46a86.71,86.71,0,0,0-11.62.81,4.89,4.89,0,0,0-1,.12q-1.17,0-1.17-1a1,1,0,0,1,.44-.87,7.58,7.58,0,0,1,1.95-.7,7,7,0,0,0,3.77-2.12q1.17-1.42,1.69-5.58a125.84,125.84,0,0,0,.58-13.33V673.2q.12-9.41-.09-13.83a23,23,0,0,0-1-6.47,4.48,4.48,0,0,0-2.32-2.76A18.22,18.22,0,0,0,227,649l.23-1.92q3.07.12,7.85.12,1.4,0,10.14-.73c5.83-.48,9.51-.72,11.06-.72a33.68,33.68,0,0,1,11,1.68,25.28,25.28,0,0,1,8.16,4.48,19,19,0,0,1,5,6.36,17.08,17.08,0,0,1,1.68,7.35,17.37,17.37,0,0,1-1.74,7.55,20,20,0,0,1-5.29,6.66,30.73,30.73,0,0,1-9.12,5.08l2.62,3.95q5.48,8.25,9.09,13.34a119,119,0,0,0,7.76,9.79,45.42,45.42,0,0,0,8.47,7.64,17.79,17.79,0,0,0,8.44,3.28c.73.12,1.1.51,1.1,1.16a.85.85,0,0,1-.53.79,7.18,7.18,0,0,1-2.49.26,25.13,25.13,0,0,1-10.87-2.47,41.94,41.94,0,0,1-9.94-6.65,71.54,71.54,0,0,1-8.36-8.78Q267.6,702.66,262.6,695.57Zm-19.06-13.65a41.08,41.08,0,0,0,9.41.93,45.77,45.77,0,0,0,5.9-.41,24.71,24.71,0,0,0,6.39-1.79,13.53,13.53,0,0,0,5.67-4.7q2.38-3.32,2.38-8.88a19.23,19.23,0,0,0-2.06-8.26,19.53,19.53,0,0,0-6.36-7.43,17.41,17.41,0,0,0-10.46-3.1,29.09,29.09,0,0,0-5.78.66c-2.15.45-3.4,1.15-3.75,2.12Q243.55,653.91,243.54,681.92Z" transform="translate(-21.29 -115.41)"/><path class="cls-3" d="M405,733.28l.7,1.4A25.7,25.7,0,0,1,398.1,737a52.09,52.09,0,0,1-6.86.58q-18.48,0-35.73-14.59a67.19,67.19,0,0,1-9.18-.67,37.39,37.39,0,0,1-8-2.47,35.1,35.1,0,0,1-12.76-9.23,41.6,41.6,0,0,1-7.72-13,39.87,39.87,0,0,1-2.59-13.8,36.18,36.18,0,0,1,5.46-19.06,40.46,40.46,0,0,1,14.73-14.32,39.5,39.5,0,0,1,20-5.32,37.35,37.35,0,0,1,13.91,2.76,40,40,0,0,1,12.41,7.79,37.44,37.44,0,0,1,8.75,12.26,39.42,39.42,0,0,1,.05,31.37,40.5,40.5,0,0,1-9.15,13,28.34,28.34,0,0,1-5.69,4.41,79.27,79.27,0,0,1-7.67,3.72q19.23,13.42,32,13.43A27,27,0,0,0,405,733.28ZM324,679.59a40.36,40.36,0,0,0,2.73,14.76A42.23,42.23,0,0,0,334.3,707a35.83,35.83,0,0,0,11.16,8.69,29,29,0,0,0,13,3.11,26.14,26.14,0,0,0,12.64-3.31,25.79,25.79,0,0,0,10-10.14q3.93-6.82,3.93-16.88a44.62,44.62,0,0,0-2.62-15.37,39.87,39.87,0,0,0-7.2-12.52,33.8,33.8,0,0,0-10.64-8.37,28.14,28.14,0,0,0-12.72-3,27.37,27.37,0,0,0-13.72,3.63,27.05,27.05,0,0,0-10.28,10.6A32.68,32.68,0,0,0,324,679.59Z" transform="translate(-21.29 -115.41)"/><path class="cls-3" d="M459.05,721.72V719.8a16.85,16.85,0,0,0,4.27-1.22,2.6,2.6,0,0,0,1.6-2.55,17.12,17.12,0,0,0-1.05-4.88c-.69-2.13-1.21-3.61-1.56-4.42L458,695.05a91,91,0,0,0-11-.46H442.4a58.71,58.71,0,0,0-12.17.69L426,706c-1.89,4.5-2.83,7.3-2.83,8.43a4.11,4.11,0,0,0,1.83,3.4c1.22.91,3.71,1.63,7.47,2.18V722a100.17,100.17,0,0,0-11.56-.81c-3.26,0-6.78.16-10.58.47v-1.69a11.28,11.28,0,0,0,5.35-2.73c.93-.81,2.15-2.74,3.69-5.78s3.08-6.35,4.65-9.94,2.7-6.38,3.4-8.39l9.31-22.26q1.74-4,3.57-8.4t3.46-8.8q1.63-4.41,2.39-7.09a1.51,1.51,0,0,1,.35-1.1l1.92-.12q1.8,6.45,3.95,12.38l12.19,32.71q4.71,12.27,7.12,18.1a43.46,43.46,0,0,0,4.2,8.34c1,1.43,3.08,2.31,6.21,2.62v2q-4.77-.47-9.18-.47c-2.33,0-4.48.06-6.48.18s-3.57.22-4.73.32Zm-18.39-52.35-6.56,16.91q-1.34,3.6-1.8,4.53a66.21,66.21,0,0,0,10.16.7l5.34-.12q4.81,0,8.64-.23c-1.35-3.95-2.22-6.3-2.61-7l-4.17-10.69q-.71-1.76-2.64-6.34t-2.82-6.27c-.73,1.62-1.36,3.11-1.88,4.44S441.24,668,440.66,669.37Z" transform="translate(-21.29 -115.41)"/><path class="cls-3" d="M550.68,721.72V719.8a16.85,16.85,0,0,0,4.27-1.22,2.6,2.6,0,0,0,1.6-2.55,17.12,17.12,0,0,0-1-4.88c-.69-2.13-1.21-3.61-1.56-4.42l-4.3-11.68a91,91,0,0,0-11-.46H534a58.71,58.71,0,0,0-12.17.69L517.6,706c-1.89,4.5-2.83,7.3-2.83,8.43a4.11,4.11,0,0,0,1.83,3.4c1.22.91,3.71,1.63,7.47,2.18V722a100.18,100.18,0,0,0-11.57-.81q-4.87,0-10.57.47v-1.69a11.28,11.28,0,0,0,5.35-2.73c.93-.81,2.15-2.74,3.69-5.78s3.08-6.35,4.65-9.94,2.7-6.38,3.4-8.39l9.31-22.26q1.74-4,3.57-8.4t3.46-8.8q1.64-4.41,2.39-7.09a1.51,1.51,0,0,1,.35-1.1l1.92-.12q1.8,6.45,4,12.38l12.19,32.71q4.71,12.27,7.12,18.1a43.46,43.46,0,0,0,4.2,8.34c1,1.43,3.08,2.31,6.21,2.62v2q-4.77-.47-9.18-.47c-2.33,0-4.48.06-6.48.18s-3.57.22-4.74.32Zm-18.39-52.35-6.56,16.91q-1.34,3.6-1.8,4.53a66.17,66.17,0,0,0,10.15.7l5.35-.12q4.82,0,8.64-.23c-1.35-3.95-2.22-6.3-2.61-7l-4.17-10.69q-.7-1.76-2.64-6.34t-2.82-6.27c-.73,1.62-1.36,3.11-1.88,4.44S532.87,668,532.29,669.37Z" transform="translate(-21.29 -115.41)"/></svg>