<svg xmlns="http://www.w3.org/2000/svg" viewBox="0 0 32 32" width="32" height="32">
  <path fill="currentColor" d="M16 2C8.268 2 2 8.268 2 16c0 2.478.675 4.8 1.85 6.79L2 30l7.42-1.82A13.93 13.93 0 0016 30c7.732 0 14-6.268 14-14S23.732 2 16 2zm0 25.6a11.56 11.56 0 01-5.88-1.6l-.42-.25-4.4 1.08 1.12-4.28-.28-.44A11.56 11.56 0 014.4 16C4.4 9.6 9.6 4.4 16 4.4S27.6 9.6 27.6 16 22.4 27.6 16 27.6zm6.36-8.68c-.35-.17-2.06-1.01-2.38-1.13-.32-.11-.55-.17-.78.17-.23.35-.89 1.13-1.09 1.36-.2.23-.4.26-.74.09-.35-.17-1.47-.54-2.8-1.72a10.5 10.5 0 01-1.94-2.4c-.2-.35-.02-.53.15-.7.15-.15.35-.4.52-.6.17-.2.23-.35.35-.58.11-.23.06-.43-.03-.6-.09-.17-.78-1.88-1.07-2.57-.28-.68-.57-.58-.78-.59h-.67c-.23 0-.6.09-.91.43-.32.35-1.2 1.17-1.2 2.86s1.23 3.32 1.4 3.55c.17.23 2.42 3.7 5.86 5.19.82.35 1.46.56 1.96.72.82.26 1.57.22 2.16.13.66-.1 2.06-.84 2.35-1.66.29-.81.29-1.51.2-1.66-.08-.14-.3-.23-.64-.4z"/>
</svg>
